<?xml version="1.0" encoding="UTF-8"?>
<svg version="1.1" xmlns="http://www.w3.org/2000/svg" width="155" height="192">
<path d="M0 0 C4.33869468 0.27802765 8.66844307 0.62734581 13 1 C14.94132813 1.14888672 14.94132813 1.14888672 16.921875 1.30078125 C24.97867193 2.10160745 30.24995618 3.19873085 36 9 C36.97646484 9.95326172 36.97646484 9.95326172 37.97265625 10.92578125 C39.3261884 12.26888155 40.66740971 13.62450099 41.99609375 14.9921875 C43.9485834 16.94848318 45.96679168 18.76156376 48.0625 20.5625 C50.64953738 22.78644441 53.10946833 25.06610268 55.5 27.5 C57.75797943 29.79326036 60.05996504 31.96428028 62.5 34.0625 C66.51361507 37.52385409 70.38299785 41.12702019 74.25 44.75 C83.2391802 53.16919992 92.30081208 61.50218651 101.47265625 69.72265625 C103.3219339 71.3890069 105.16257462 73.0625845 106.99609375 74.74609375 C107.49681396 75.20491943 107.99753418 75.66374512 108.51342773 76.13647461 C109.92709283 77.43312752 111.33860571 78.73212571 112.75 80.03125 C114.83478636 82.02256897 114.83478636 82.02256897 117 83 C117.27070312 82.41476563 117.54140625 81.82953125 117.8203125 81.2265625 C118.99141283 79.01620758 120.25775577 77.27714736 121.875 75.375 C122.36742188 74.78460938 122.85984375 74.19421875 123.3671875 73.5859375 C125.19186576 71.81364235 126.57806079 70.79803361 129 70 C131.64564072 70.93565342 133.62963376 72.45014515 136 74 C134.62001017 77.07367159 133.01432115 79.27563276 130.69921875 81.71484375 C130.05146484 82.40126953 129.40371094 83.08769531 128.73632812 83.79492188 C128.06021484 84.50197266 127.38410156 85.20902344 126.6875 85.9375 C126.02298828 86.64068359 125.35847656 87.34386719 124.67382812 88.06835938 C121.91058104 90.98466466 119.12813794 93.87204643 116.28515625 96.7109375 C114.0259015 98.97405422 111.87917613 101.30203415 109.75 103.6875 C108.97398438 104.55503906 108.19796875 105.42257813 107.3984375 106.31640625 C106.60695313 107.20199219 105.81546875 108.08757812 105 109 C102.71539231 111.53293461 100.429556 114.06472134 98.140625 116.59375 C96.73179719 118.17739586 95.34546058 119.78138814 93.984375 121.40625 C93.37078125 122.1384375 92.7571875 122.870625 92.125 123.625 C91.59132813 124.27726562 91.05765625 124.92953125 90.5078125 125.6015625 C89 127 89 127 86 127 C83.8125 124 83.8125 124 82 121 C83.57780923 117.28954753 85.90703248 114.70093616 88.625 111.75 C89.44226563 110.85796875 90.25953125 109.9659375 91.1015625 109.046875 C91.72804688 108.37140625 92.35453125 107.6959375 93 107 C91.8717446 105.8717446 90.74312686 104.74385044 89.61328125 103.6171875 C88.4597124 102.46082551 87.31190691 101.29870256 86.16796875 100.1328125 C82.28785867 96.19913088 78.32002551 92.45194353 74.1328125 88.84765625 C71.72623179 86.7628345 69.36235055 84.63478467 67 82.5 C64.04130249 79.82951656 61.07073528 77.17701942 58.0625 74.5625 C53.86696779 70.90942044 49.76626447 67.15494451 45.65625 63.40625 C43.45647259 61.41351047 41.24044782 59.4466186 39 57.5 C35.79100756 54.71185902 32.64083556 51.86471815 29.5 49 C26.33738443 46.115799 23.16559512 43.24822525 19.9375 40.4375 C18.99583984 39.57898438 18.99583984 39.57898438 18.03515625 38.703125 C16.00427532 36.91596548 16.00427532 36.91596548 13.49609375 35.484375 C3.86236997 28.88003381 3.07898899 18.41616007 0.9609375 7.56640625 C0 2.33733906 0 2.33733906 0 0 Z " fill="#2D2D2D" transform="translate(0,47)"/>
<path d="M0 0 C2.0703125 1.171875 2.0703125 1.171875 4.125 2.75 C7.68998123 5.39215096 11.30123481 7.85108835 15.05859375 10.21484375 C15.9614209 10.78557617 16.86424805 11.35630859 17.79443359 11.94433594 C19.62660459 13.09812857 21.46413283 14.24346147 23.30712891 15.37988281 C24.15581543 15.91838867 25.00450195 16.45689453 25.87890625 17.01171875 C26.6479126 17.49084717 27.41691895 17.96997559 28.20922852 18.46362305 C30.37980319 20.32584887 30.67581408 21.18775818 31 24 C31.09181003 25.92801055 31.13066477 27.85886843 31.1328125 29.7890625 C31.13410156 30.89507812 31.13539062 32.00109375 31.13671875 33.140625 C31.13285156 34.29046875 31.12898438 35.4403125 31.125 36.625 C31.12886719 37.78257813 31.13273437 38.94015625 31.13671875 40.1328125 C31.13542969 41.23625 31.13414063 42.3396875 31.1328125 43.4765625 C31.13168457 44.48799316 31.13055664 45.49942383 31.12939453 46.54150391 C31 49 31 49 30 51 C21.93108349 48.50386036 14.50233847 45.08014886 6.90820312 41.40820312 C5.97556641 40.97056641 5.04292969 40.53292969 4.08203125 40.08203125 C3.24905518 39.68218018 2.4160791 39.2823291 1.55786133 38.87036133 C-4.31868776 36.8707529 -8.38440719 38.29690288 -13.859375 40.84375 C-14.48982727 41.13229858 -15.12027954 41.42084717 -15.76983643 41.71813965 C-17.76830115 42.63486431 -19.75929101 43.56656903 -21.75 44.5 C-23.756105 45.43073662 -25.76362154 46.35823454 -27.77301025 47.28186035 C-29.5869451 48.11714146 -31.39661392 48.96166829 -33.20605469 49.80664062 C-36 51 -36 51 -38 51 C-39.94989545 41.35270475 -42.2448483 29.355715 -38 20 C-33.91174781 14.57013674 -28.11600299 10.97672289 -22.375 7.5 C-21.63523926 7.04839508 -20.89547852 6.59679016 -20.13330078 6.13150024 C-17.97247481 4.8449652 -15.79342551 3.61077551 -13.5859375 2.40625 C-12.91678314 2.04013107 -12.24762878 1.67401215 -11.55819702 1.29679871 C-7.30257038 -0.84146033 -4.58013131 -1.35601534 0 0 Z " fill="#BFBFBF" transform="translate(81,5)"/>
<path d="M0 0 C-0.61186981 6.14929162 -1.47187372 12.14216882 -2.75 18.1875 C-2.894375 18.95513672 -3.03875 19.72277344 -3.1875 20.51367188 C-4.68795021 27.57425812 -8.0217333 31.56399669 -13.5625 36.1875 C-17.11420603 39.21551403 -20.57036399 42.33517178 -24 45.5 C-27.96829371 49.15354568 -31.9680698 52.76243633 -36.04296875 56.296875 C-39.72318902 59.49962159 -43.35785163 62.75410388 -47 66 C-52.28576673 61.57470693 -57.34962437 56.93895918 -62.37963867 52.22753906 C-65.15011383 49.64645914 -67.90260725 47.1930445 -71 45 C-70.45418801 41.20450741 -68.94590705 39.69020705 -66.0625 37.25 C-65.35222656 36.63640625 -64.64195313 36.0228125 -63.91015625 35.390625 C-62 34 -62 34 -60 34 C-59.67 33.01 -59.34 32.02 -59 31 C-57.6796875 29.66796875 -57.6796875 29.66796875 -55.875 28.1875 C-50.93775324 24.00914289 -46.24723018 19.58887939 -41.54443359 15.15112305 C-38.48919441 12.27987163 -35.41502808 9.43001908 -32.28125 6.64453125 C-31.74435547 6.1647583 -31.20746094 5.68498535 -30.65429688 5.19067383 C-27.43106543 2.87076536 -23.8618836 2.50559479 -20 2 C-19.37254883 1.91266602 -18.74509766 1.82533203 -18.09863281 1.73535156 C-5.58890993 0 -5.58890993 0 0 0 Z " fill="#2C2C2C" transform="translate(153,47)"/>
<path d="M0 0 C2.76100364 1.78356804 4.39025565 3.90733235 6.390625 6.5078125 C7.09703125 7.41789062 7.8034375 8.32796875 8.53125 9.265625 C9.32789063 10.31363281 9.32789063 10.31363281 10.140625 11.3828125 C13.13282768 10.01910951 15.43089029 8.43373167 17.890625 6.2578125 C18.50421875 5.71898438 19.1178125 5.18015625 19.75 4.625 C20.20890625 4.21507813 20.6678125 3.80515625 21.140625 3.3828125 C26.04189978 6.43299421 30.09949293 9.96284862 34.265625 13.9453125 C39.46900379 18.94021393 39.46900379 18.94021393 45.140625 23.3828125 C43.63713123 27.05067643 41.50333708 29.07191643 38.515625 31.6328125 C37.69835937 32.33921875 36.88109375 33.045625 36.0390625 33.7734375 C35.41257813 34.30453125 34.78609375 34.835625 34.140625 35.3828125 C37.52835397 40.07440966 40.92247683 44.4127907 45.140625 48.3828125 C44.01610773 51.354751 42.91768709 53.71721937 41.140625 56.3828125 C37.15140054 55.85627057 35.63722944 54.06948724 33.078125 51.0703125 C32.29050781 50.16410156 31.50289062 49.25789063 30.69140625 48.32421875 C29.84964844 47.35355469 29.00789063 46.38289063 28.140625 45.3828125 C26.35525593 43.41811537 24.56526163 41.45928348 22.765625 39.5078125 C21.8344147 38.49499455 20.90342717 37.48197174 19.97265625 36.46875 C19.50682129 35.96182617 19.04098633 35.45490234 18.56103516 34.93261719 C17.12906502 33.37019944 15.70251889 31.80299152 14.27734375 30.234375 C9.63018873 25.12682072 4.92477772 20.11681394 0 15.2734375 C-3.10795509 12.11324787 -5.98764634 8.75709368 -8.859375 5.3828125 C-2.73124084 -0.90658835 -2.73124084 -0.90658835 0 0 Z " fill="#3B3B3B" transform="translate(26.859375,117.6171875)"/>
<path d="M0 0 C3.10592202 1.43393845 5.02840639 3.59531717 7.390625 6.05078125 C8.28265625 6.96988281 9.1746875 7.88898438 10.09375 8.8359375 C10.76921875 9.54621094 11.4446875 10.25648438 12.140625 10.98828125 C10.80356135 13.96201135 9.33340851 16.04320508 7.0234375 18.3359375 C6.41628906 18.94115234 5.80914062 19.54636719 5.18359375 20.16992188 C4.55066406 20.79060547 3.91773438 21.41128906 3.265625 22.05078125 C2.64042969 22.67533203 2.01523437 23.29988281 1.37109375 23.94335938 C-1.56502417 26.85154382 -4.43921338 29.64229099 -7.859375 31.98828125 C-7.59125 32.85453125 -7.323125 33.72078125 -7.046875 34.61328125 C-6.84097912 38.31940712 -7.03784088 38.69812864 -9.296875 41.36328125 C-10.1425 42.22953125 -10.988125 43.09578125 -11.859375 43.98828125 C-15.99546969 42.36161571 -18.75244062 39.35493068 -21.796875 36.23828125 C-22.30927734 35.72523438 -22.82167969 35.2121875 -23.34960938 34.68359375 C-32.79406945 25.13112842 -32.79406945 25.13112842 -32.984375 21.80078125 C-31.32458953 19.12668243 -29.75105878 18.2092144 -26.859375 16.98828125 C-25.93382812 17.23191406 -25.00828125 17.47554687 -24.0546875 17.7265625 C-20.69807681 18.34256036 -20.69807681 18.34256036 -17.89453125 15.92578125 C-16.88673104 14.96403284 -15.89638073 13.98375092 -14.921875 12.98828125 C-14.40044922 12.48586914 -13.87902344 11.98345703 -13.34179688 11.46582031 C-9.88569983 8.11490883 -6.54130824 4.64797628 -3.359375 1.03515625 C-1.859375 -0.01171875 -1.859375 -0.01171875 0 0 Z " fill="#3B3B3B" transform="translate(32.859375,145.01171875)"/>
<path d="M0 0 C5.47843379 0.27596588 7.97231222 3.54335795 11.5 7.3125 C16.89076602 13.05787811 16.89076602 13.05787811 23 18 C24.2065625 17.7525 24.2065625 17.7525 25.4375 17.5 C28 17 28 17 31.3125 18.9375 C32.199375 19.618125 33.08625 20.29875 34 21 C32.3068237 30.32292136 22.47541195 37.75911001 16 44 C12.69354879 42.43919073 10.74965614 41.31513794 9 38 C9.37898438 36.61361328 9.37898438 36.61361328 9.765625 35.19921875 C10.38168644 31.82413673 10.38168644 31.82413673 7.75390625 29.25390625 C6.70708287 28.33701606 5.64204871 27.44062381 4.5625 26.5625 C4.0149707 26.09094482 3.46744141 25.61938965 2.90332031 25.13354492 C1.8000495 24.185735 0.6898848 23.2458868 -0.42724609 22.31445312 C-2.57184894 20.5220685 -4.6586222 18.66647816 -6.75 16.8125 C-7.83199291 15.8734533 -8.91472505 14.93525165 -10 14 C-9.44828634 10.1552454 -7.78537669 8.49126453 -5 5.875 C-2.10714412 3.22939276 -2.10714412 3.22939276 0 0 Z " fill="#3A3A3A" transform="translate(119,145)"/>
<path d="M0 0 C0.66 0.33 1.32 0.66 2 1 C1.43410156 1.55429688 0.86820313 2.10859375 0.28515625 2.6796875 C-0.44832031 3.40414062 -1.18179688 4.12859375 -1.9375 4.875 C-2.66839844 5.59429687 -3.39929688 6.31359375 -4.15234375 7.0546875 C-6.05667999 8.87027192 -6.05667999 8.87027192 -7 11 C-7.66 11 -8.32 11 -9 11 C-8.46324097 7.14896699 -6.88399077 5.68202413 -3.9375 3.25 C-3.20402344 2.63640625 -2.47054687 2.0228125 -1.71484375 1.390625 C-1.14894531 0.93171875 -0.58304688 0.4728125 0 0 Z " fill="#808080" transform="translate(91,81)"/>
</svg>
