<?xml version="1.0" encoding="UTF-8" standalone="no"?>
<svg version="1.1" width="800" height="800" viewBox="0 0 800 800" xmlns="http://www.w3.org/2000/svg">
  <defs>
    <clipPath clipPathUnits="userSpaceOnUse" id="clipPath">
      <path d="M 0,600 H 600 V 0 H 0 Z"/>
    </clipPath>
  </defs>
  <g transform="matrix(1.3333333,0,0,-1.3333333,0,800)">
    <g clip-path="url(#clipPath)">
      <!-- Wind element background -->
      <g transform="translate(300,28)">
        <path d="M 0,0 C -72.654,0 -140.959,28.293 -192.333,79.667 -243.707,131.041 -272,199.347 -272,272 c 0,72.654 28.293,140.959 79.667,192.333 C -140.959,515.707 -72.654,544 0,544 72.653,544 140.959,515.707 192.333,464.333 243.707,412.959 272,344.654 272,272 272,199.347 243.707,131.041 192.333,79.667 140.959,28.293 72.653,0 0,0" style="fill:#98b0b5;fill-opacity:1;fill-rule:nonzero;stroke:none"/>
      </g>
      <!-- Wind symbol part 1 -->
      <g transform="translate(78.6426,272.7793)">
        <path d="m 0,0 c -1.381,0.291 -1.32,2.293 0.079,2.479 12.504,1.672 42.559,2.757 81.66,-15.666 52,-24.5 135.969,-79.236 185.7,-76.263 42.05,2.513 62.531,18.325 60.3,37.763 -1.75,15.25 -18.75,25.25 -31.75,20.25 -13,-5 -18.75,-16.75 -17.75,-27.75 -11,8.5 -7,25 -3.5,29.5 3.5,4.5 22.692,30.667 55.5,8 27.5,-19 15.875,-56.014 0,-70 -10.5,-9.25 -42,-32.5 -101.5,-17.5 -59.5,15 -123.649,69.333 -157.5,85.5 C 40.085,-8.808 26.661,-5.604 0,0" style="fill:#ffffff;fill-opacity:1;fill-rule:nonzero;stroke:none"/>
      </g>
      <!-- Wind symbol part 2 -->
      <g transform="translate(168.0537,279.374)">
        <path d="m 0,0 c -0.97,0.531 -0.358,2.014 0.7,1.69 22.24,-6.79 78.774,-19.585 119.628,-8.971 59.667,15.5 70.5,50.999 130,79.833 37.951,18.39 87.5,5.166 101,-31.834 13.5,-36.999 -21.667,-62.499 -49.5,-60.999 -22.972,1.237 -38.491,14.355 -41.5,25.019 -3.333,11.814 1.333,27.147 15,31.48 -4,-17.999 5.786,-37.679 26,-36.499 20,1.166 37.667,26.222 19,44.999 -18.696,18.807 -42,15.167 -56,6.5 -14.928,-9.241 -50,-43.999 -80,-58.499 C 155.538,-21.196 113.368,-36.377 69.761,-24.782 32.61,-14.904 21.208,-11.607 0,0" style="fill:#ffffff;fill-opacity:1;fill-rule:nonzero;stroke:none"/>
      </g>
      <!-- Wind symbol part 3 -->
      <g transform="translate(111.6816,313.1714)">
        <path d="m 0,0 c -1.263,0.484 -0.869,2.371 0.483,2.316 17.13,-0.694 65.046,0.092 90.217,28.105 31,34.5 23.941,58.037 51.5,83 19.25,17.436 63.27,22.991 94.25,-3.5 C 270.95,80.421 252.617,22.837 218.367,5.087 189.365,-9.942 152.95,-5.079 144.7,18.421 c -9.187,26.169 9.75,49.25 29,49 20.302,-0.264 17.5,-20.5 17.5,-20.5 0,0 -6,10.495 -14.25,9.25 -10.455,-1.577 -19.681,-14.673 -14.25,-27.75 6.75,-16.25 35.777,-23.443 56.667,1.333 21.5,25.5 16.833,60.167 -18.667,72.667 C 167.89,113.974 148.652,89.774 131.2,57.416 117.45,31.921 101.95,-0.579 54.7,-3.299 20.066,-5.293 6.654,-2.553 0,0" style="fill:#ffffff;fill-opacity:1;fill-rule:nonzero;stroke:none"/>
      </g>
      <!-- Consume X mark -->
      <g transform="translate(470.4717,90.2558)">
        <path d="M 0,0 C -2.607,0.001 -4.236,1.082 -5.144,1.99 L -170.472,167.317 -335.8,1.99 C -336.707,1.082 -338.337,0 -340.944,0 c -9.428,0 -33.532,18.093 -39.001,31.297 -2.906,7.014 -0.17,11.23 1.719,13.119 l 165.328,165.328 -165.328,165.328 c -2.085,2.084 -5.047,6.872 -1.467,15.515 5.437,13.127 23.817,30.064 35.888,30.064 3.175,0 5.944,-1.09 8.005,-3.153 L -170.472,252.171 -5.144,417.498 c 2.062,2.063 4.831,3.153 8.005,3.153 12.072,0 30.452,-16.937 35.889,-30.064 3.58,-8.643 0.617,-13.431 -1.468,-15.515 L -128.045,209.744 37.282,44.416 C 39.172,42.526 41.908,38.31 39,31.293 33.528,18.088 9.429,0 0.002,0 Z" style="fill:#e34e61;fill-opacity:1;fill-rule:nonzero;stroke:none"/>
      </g>
      <!-- Consume X mark white outline -->
      <g transform="translate(88.71,461.792)">
        <path d="M 0,0 161.792,-161.792 0,-323.584 c -2.231,-2.231 47.271,-51.726 49.498,-49.498 L 211.29,-211.29 373.082,-373.082 c 2.228,-2.228 51.73,47.267 49.498,49.498 L 260.788,-161.792 422.58,0 c 2.389,2.389 -46.477,52.518 -49.498,49.498 L 211.29,-112.295 49.498,49.498 C 46.479,52.517 -2.389,2.389 0,0 m 384.623,44.114 c 13.091,0 39.483,-28.446 30.886,-37.043 L 246.645,-161.792 415.509,-330.655 c 9.048,-9.048 -24.846,-35.882 -33.746,-35.882 -0.703,0 -1.252,0.169 -1.61,0.526 L 211.29,-197.147 42.427,-366.011 c -0.358,-0.358 -0.906,-0.526 -1.61,-0.526 -8.902,0 -42.793,26.834 -33.746,35.882 L 175.935,-161.792 7.071,7.071 c -8.597,8.598 17.795,37.046 30.886,37.043 1.773,0 3.305,-0.522 4.47,-1.687 L 211.29,-126.437 380.153,42.427 c 1.166,1.165 2.696,1.687 4.47,1.687" style="fill:#ffffff;fill-opacity:1;fill-rule:nonzero;stroke:none"/>
      </g>
      <!-- Consume outer ring -->
      <g transform="translate(300,580)">
        <path d="m 0,0 c -37.793,0 -74.463,-7.405 -108.994,-22.011 -33.344,-14.102 -63.286,-34.29 -88.996,-59.999 -25.709,-25.71 -45.897,-55.652 -59.999,-88.997 C -272.595,-205.536 -280,-242.207 -280,-280 c 0,-37.793 7.405,-74.464 22.011,-108.993 14.102,-33.345 34.29,-63.287 59.999,-88.997 25.71,-25.709 55.652,-45.896 88.996,-59.999 C -74.463,-552.595 -37.793,-560 0,-560 c 37.793,0 74.463,7.405 108.994,22.011 33.344,14.103 63.286,34.29 88.996,59.999 25.709,25.71 45.897,55.652 60,88.997 14.605,34.529 22.01,71.2 22.01,108.993 0,37.793 -7.405,74.464 -22.01,108.993 -14.103,33.345 -34.291,63.287 -60,88.997 -25.71,25.709 -55.652,45.897 -88.996,59.999 C 74.463,-7.405 37.793,0 0,0 m 0,-16 c 145.803,0 264,-118.196 264,-264 0,-145.803 -118.197,-264 -264,-264 -145.803,0 -264,118.197 -264,264 0,145.804 118.197,264 264,264" style="fill:#e34e61;fill-opacity:1;fill-rule:nonzero;stroke:none"/>
      </g>
    </g>
  </g>
</svg>
