<?xml version="1.0" encoding="UTF-8" standalone="no"?>
<svg version="1.1" width="800" height="800" viewBox="0 0 800 800" xmlns="http://www.w3.org/2000/svg">
  <defs>
    <clipPath clipPathUnits="userSpaceOnUse" id="clipPath">
      <path d="M 0,600 H 600 V 0 H 0 Z"/>
    </clipPath>
  </defs>
  <g transform="matrix(1.3333333,0,0,-1.3333333,0,800)">
    <g clip-path="url(#clipPath)">
      <!-- Dark element background -->
      <g transform="translate(300,28)">
        <path d="M 0,0 C -72.653,0 -140.959,28.293 -192.333,79.667 -243.707,131.041 -272,199.347 -272,272 c 0,72.653 28.293,140.959 79.667,192.333 C -140.959,515.707 -72.653,544 0,544 72.653,544 140.959,515.707 192.333,464.333 243.707,412.959 272,344.653 272,272 272,199.347 243.707,131.041 192.333,79.667 140.959,28.293 72.653,0 0,0" style="fill:#202830;fill-opacity:1;fill-rule:nonzero;stroke:none"/>
      </g>
      <!-- Dark symbol -->
      <g transform="translate(345.8301,154.2148)">
        <path d="m 0,0 c -8.87,0 -17.561,0.8 -26,2.32 6.06,2.781 11.92,5.941 17.54,9.441 1.786,1.112 3.539,2.271 5.276,3.453 73.09,1.203 131.963,59.194 131.963,130.566 0,71.385 -58.877,129.378 -131.971,130.577 -1.739,1.181 -3.492,2.34 -5.279,3.454 -5.619,3.5 -11.469,6.659 -17.529,9.439 8.439,1.521 17.13,2.32 26,2.32 80.38,0 145.779,-65.4 145.779,-145.79 C 145.779,65.4 80.38,0 0,0 M -45.83,7.38 C -52.25,5.24 -58.88,3.55 -65.66,2.32 -74.1,0.8 -82.78,0 -91.65,0 c -80.39,0 -145.79,65.4 -145.79,145.78 0,80.39 65.4,145.79 145.79,145.79 8.87,0 17.55,-0.799 25.99,-2.32 6.78,-1.229 13.41,-2.92 19.83,-5.06 6.019,-1.99 11.87,-4.379 17.51,-7.11 48.75,-23.61 82.45,-73.59 82.45,-131.3 0,-57.7 -33.7,-107.679 -82.45,-131.29 -5.64,-2.729 -11.491,-5.12 -17.51,-7.11 M 0,303.57 c -15.93,0 -31.311,-2.37 -45.82,-6.79 -14.51,4.42 -29.901,6.79 -45.83,6.79 -87.01,0 -157.79,-70.78 -157.79,-157.79 0,-87 70.78,-157.78 157.79,-157.78 15.929,0 31.32,2.37 45.83,6.79 C -31.311,-9.63 -15.93,-12 0,-12 87,-12 157.779,58.78 157.779,145.78 157.779,232.79 87,303.57 0,303.57" style="fill:#ffffff;fill-opacity:1;fill-rule:nonzero;stroke:none"/>
      </g>
      <!-- Consume X mark -->
      <g transform="translate(470.4717,90.2558)">
        <path d="M 0,0 C -2.607,0.001 -4.236,1.082 -5.144,1.99 L -170.472,167.317 -335.8,1.99 C -336.707,1.082 -338.337,0 -340.944,0 c -9.428,0 -33.532,18.093 -39.001,31.297 -2.906,7.014 -0.17,11.23 1.719,13.119 l 165.328,165.328 -165.328,165.328 c -2.085,2.084 -5.047,6.872 -1.467,15.515 5.437,13.127 23.817,30.064 35.888,30.064 3.175,0 5.944,-1.09 8.005,-3.153 L -170.472,252.171 -5.144,417.498 c 2.062,2.063 4.831,3.153 8.005,3.153 12.072,0 30.452,-16.937 35.889,-30.064 3.58,-8.643 0.617,-13.431 -1.468,-15.515 L -128.045,209.744 37.282,44.416 C 39.172,42.526 41.908,38.31 39,31.293 33.528,18.088 9.429,0 0.002,0 Z" style="fill:#e34e61;fill-opacity:1;fill-rule:nonzero;stroke:none"/>
      </g>
      <!-- Consume X mark white outline -->
      <g transform="translate(88.71,461.792)">
        <path d="M 0,0 161.792,-161.792 0,-323.584 c -2.231,-2.231 47.271,-51.726 49.498,-49.498 L 211.29,-211.29 373.082,-373.082 c 2.228,-2.228 51.73,47.267 49.498,49.498 L 260.788,-161.792 422.58,0 c 2.389,2.389 -46.477,52.518 -49.498,49.498 L 211.29,-112.295 49.498,49.498 C 46.479,52.517 -2.389,2.389 0,0 m 384.623,44.114 c 13.091,0 39.483,-28.446 30.886,-37.043 L 246.645,-161.792 415.509,-330.655 c 9.048,-9.048 -24.846,-35.882 -33.746,-35.882 -0.703,0 -1.252,0.169 -1.61,0.526 L 211.29,-197.147 42.427,-366.011 c -0.358,-0.358 -0.906,-0.526 -1.61,-0.526 -8.902,0 -42.793,26.834 -33.746,35.882 L 175.935,-161.792 7.071,7.071 c -8.597,8.598 17.795,37.046 30.886,37.043 1.773,0 3.305,-0.522 4.47,-1.687 L 211.29,-126.437 380.153,42.427 c 1.166,1.165 2.696,1.687 4.47,1.687" style="fill:#ffffff;fill-opacity:1;fill-rule:nonzero;stroke:none"/>
      </g>
      <!-- Consume outer ring -->
      <g transform="translate(300,580)">
        <path d="m 0,0 c -37.793,0 -74.463,-7.405 -108.994,-22.011 -33.344,-14.102 -63.286,-34.29 -88.996,-59.999 -25.709,-25.71 -45.897,-55.652 -59.999,-88.997 C -272.595,-205.536 -280,-242.207 -280,-280 c 0,-37.793 7.405,-74.464 22.011,-108.993 14.102,-33.345 34.29,-63.287 59.999,-88.997 25.71,-25.709 55.652,-45.896 88.996,-59.999 C -74.463,-552.595 -37.793,-560 0,-560 c 37.793,0 74.463,7.405 108.994,22.011 33.344,14.103 63.286,34.29 88.996,59.999 25.709,25.71 45.897,55.652 60,88.997 14.605,34.529 22.01,71.2 22.01,108.993 0,37.793 -7.405,74.464 -22.01,108.993 -14.103,33.345 -34.291,63.287 -60,88.997 -25.71,25.709 -55.652,45.897 -88.996,59.999 C 74.463,-7.405 37.793,0 0,0 m 0,-16 c 145.803,0 264,-118.196 264,-264 0,-145.803 -118.197,-264 -264,-264 -145.803,0 -264,118.197 -264,264 0,145.804 118.197,264 264,264" style="fill:#e34e61;fill-opacity:1;fill-rule:nonzero;stroke:none"/>
      </g>
    </g>
  </g>
</svg>
