<?xml version="1.0" encoding="UTF-8"?>
<svg version="1.1" xmlns="http://www.w3.org/2000/svg" width="165" height="200">
<path d="M0 0 C4.40032575 0.25288233 8.75851631 0.91359207 13.125 1.5 C14.96191406 1.70496094 14.96191406 1.70496094 16.8359375 1.9140625 C24.9015968 3.01392513 28.9565966 4.65619138 34 11 C35.1454195 12.04461762 36.31045665 13.0684183 37.5 14.0625 C41.60510552 17.59834284 45.54995241 21.29335238 49.5 25 C53.98274132 29.20294642 58.47928099 33.36839261 63.1328125 37.3828125 C69.94950608 43.28681071 76.55778267 49.42643291 83.17578125 55.55078125 C88.07550162 60.08071141 93.02964434 64.54772702 98 69 C99.68775662 70.52054854 101.37525502 72.04138375 103.0625 73.5625 C107.6905282 77.72845882 112.34040897 81.86939636 117 86 C121.9186048 84.07047929 124.45977621 80.02827828 127.68359375 76.01953125 C130 74 130 74 132.640625 74.1015625 C135.1646739 75.06270695 136.95040813 76.25405137 139 78 C135.01930995 86.57810674 127.09302123 92.94517092 120.47412109 99.5090332 C116.8126641 103.15098058 113.27702189 106.82427307 109.94140625 110.76953125 C106.99927897 114.14972174 103.93351887 117.41273015 100.875 120.6875 C100.2761499 121.33009766 99.6772998 121.97269531 99.06030273 122.63476562 C95.76756515 126.15507804 92.43103724 129.61427835 89 133 C85.55995373 131.85331791 84.73364831 131.12056696 83 128 C83.22416203 123.09334233 85.60696596 120.96807029 89.0625 117.6875 C90.44115234 116.36298828 90.44115234 116.36298828 91.84765625 115.01171875 C92.55792969 114.34785156 93.26820312 113.68398437 94 113 C92.92518582 109.77555746 92.32427942 109.16725333 89.8125 107.0625 C89.09191406 106.45019531 88.37132813 105.83789062 87.62890625 105.20703125 C86.32759766 104.11455078 86.32759766 104.11455078 85 103 C82.74574393 101.08830592 80.49716844 99.17001796 78.25 97.25 C77.64736328 96.73598633 77.04472656 96.22197266 76.42382812 95.69238281 C71.96220953 91.86983525 67.62830748 87.92869658 63.32470703 83.93017578 C60.18496883 81.03251776 56.95833511 78.29653427 53.625 75.625 C48.58663806 71.57398276 43.8969524 67.22776443 39.1940918 62.79956055 C34.88136868 58.76069859 30.40170359 55.0106011 25.7890625 51.31640625 C21.94051892 48.12006683 18.28182798 44.73638006 14.64672852 41.30053711 C11.67125596 38.49463015 8.64696969 35.96148178 5.375 33.5 C0.58700367 29.27767412 -0.32218563 24.1613326 -1 18 C-1.31852881 12.33094561 -1.33913871 6.66752956 -1 1 C-0.67 0.67 -0.34 0.34 0 0 Z " fill="#2D2D2D" transform="translate(5,45)"/>
<path d="M0 0 C4.08987083 0.50709989 7.49106566 1.98149672 11.21875 3.6875 C12.98798828 4.48800781 12.98798828 4.48800781 14.79296875 5.3046875 C16.64980387 6.15276832 18.5058047 7.00265801 20.36181641 7.85253906 C22.16637418 8.67674301 23.97378314 9.49469532 25.78125 10.3125 C26.85439453 10.80363281 27.92753906 11.29476563 29.03320312 11.80078125 C34.58928906 14.05062025 34.58928906 14.05062025 40.34985352 12.8125 C41.61573137 12.22142046 42.87516917 11.61641308 44.12890625 11 C44.80042221 10.68546875 45.47193817 10.3709375 46.1638031 10.046875 C48.30303529 9.04404725 50.43334621 8.02403419 52.5625 7 C54.6955001 5.97666008 56.82999701 4.95769057 58.97190857 3.953125 C60.30277393 3.3288718 61.6286368 2.69381345 62.94862366 2.046875 C65.62483208 0.79074697 67.45843231 -0.06943871 70.43725586 0.3125 C70.95296143 0.539375 71.46866699 0.76625 72 1 C72.24882404 5.14387734 72.4293297 9.28372119 72.54931641 13.43286133 C72.59935413 14.84085843 72.66741993 16.24834223 72.75439453 17.65454102 C73.45594647 29.29617639 73.45594647 29.29617639 69.9909668 33.35107422 C67.40965659 35.16366647 64.8213657 36.59576923 62 38 C60.69526249 38.85342005 59.40302914 39.72651426 58.12890625 40.625 C56.94110488 41.41816732 55.7523045 42.20984067 54.5625 43 C53.93142334 43.42007324 53.30034668 43.84014648 52.65014648 44.27294922 C47.14770711 47.92454911 41.5929633 51.48840974 36 55 C30.38569446 52.05723599 25.1854763 48.79866923 20.03515625 45.109375 C15.31380859 41.82812952 10.46633376 38.74450016 5.625 35.64404297 C4.91214844 35.18658691 4.19929688 34.72913086 3.46484375 34.2578125 C2.49985962 33.64123779 2.49985962 33.64123779 1.51538086 33.01220703 C0 32 0 32 -1 31 C-1.10012401 28.79349344 -1.1308118 26.58377614 -1.1328125 24.375 C-1.13376923 23.71290527 -1.13472595 23.05081055 -1.13571167 22.36865234 C-1.13639326 20.96647039 -1.13454042 19.5642853 -1.13037109 18.16210938 C-1.12502246 16.00904287 -1.1303167 13.85618498 -1.13671875 11.703125 C-1.13605796 10.34374954 -1.13477679 8.9843742 -1.1328125 7.625 C-1.13168457 6.37976563 -1.13055664 5.13453125 -1.12939453 3.8515625 C-1 1 -1 1 0 0 Z " fill="#979797" transform="translate(47,7)"/>
<path d="M0 0 C0.84766182 24.45661317 0.84766182 24.45661317 -5.484375 31.93359375 C-8.47580729 34.84845098 -11.70871972 37.43493133 -15 40 C-16.77277559 41.43510405 -18.54368355 42.87251899 -20.3125 44.3125 C-21.20066406 45.02535156 -22.08882812 45.73820312 -23.00390625 46.47265625 C-27.36912903 50.15492371 -31.49611407 54.08128914 -35.6105957 58.0402832 C-39.52333406 61.76737876 -43.53382366 64.9538387 -48 68 C-53.80767885 62.99839374 -59.43571249 57.83266139 -65 52.5625 C-65.77472656 51.83095703 -66.54945312 51.09941406 -67.34765625 50.34570312 C-69.233003 48.56509786 -71.11709191 46.78318322 -73 45 C-70.26178751 41.63025485 -67.64621063 38.48608138 -64.3125 35.6875 C-56.66890935 29.15622291 -49.26741018 22.35861967 -41.90551758 15.51293945 C-40.86052521 14.54376515 -39.80757908 13.58311278 -38.74780273 12.63012695 C-37.47692245 11.44481229 -36.25537931 10.20591972 -35.06665039 8.93823242 C-28.83740505 2.65041603 -23.20417015 1.39661453 -14.5625 0.4375 C-13.37978516 0.27443359 -12.19707031 0.11136719 -10.97851562 -0.05664062 C-2.37009637 -1.18504819 -2.37009637 -1.18504819 0 0 Z " fill="#2C2C2C" transform="translate(160,46)"/>
<path d="M0 0 C3.61526903 1.27597731 5.56573891 3.64842685 7.96875 6.5 C8.6503418 7.28020508 8.6503418 7.28020508 9.34570312 8.07617188 C10.45964243 9.35427066 11.55939888 10.64470655 12.65625 11.9375 C16.40261902 10.28231541 18.45819852 8.14013039 21.09375 5.08203125 C22.65625 3.9375 22.65625 3.9375 24.5715332 4.21118164 C27.99969521 5.40555826 30.28964493 8.07528371 32.84375 10.5625 C37.38726859 14.90349865 41.95721964 18.86132826 47.14453125 22.4375 C47.64339844 22.9325 48.14226562 23.4275 48.65625 23.9375 C48.65625 25.2575 48.65625 26.5775 48.65625 27.9375 C46.25 30.296875 46.25 30.296875 43.15625 32.6875 C41.62484375 33.88632813 41.62484375 33.88632813 40.0625 35.109375 C38.87140625 36.01429688 38.87140625 36.01429688 37.65625 36.9375 C39.57469419 41.61172038 43.15956794 44.31605026 46.85546875 47.62109375 C48.65625 49.9375 48.65625 49.9375 48.5234375 52.578125 C47.58916532 55.12001867 46.40623959 56.8831644 44.65625 58.9375 C41.26367332 58.36964382 39.91586103 57.47787917 37.78125 54.8125 C34.13390757 50.44046726 30.29819061 46.27819822 26.40625 42.125 C25.48416748 41.13765869 25.48416748 41.13765869 24.54345703 40.13037109 C21.32858784 36.66812317 21.32858784 36.66812317 17.96191406 33.35668945 C16.65625 31.9375 16.65625 31.9375 16.65625 29.9375 C15.99625 29.9375 15.33625 29.9375 14.65625 29.9375 C13.421875 28.6796875 13.421875 28.6796875 11.90625 26.8125 C9.43822816 23.87712934 6.86940597 21.1310102 4.1171875 18.46484375 C3.48780273 17.85334473 2.85841797 17.2418457 2.20996094 16.61181641 C0.93723358 15.38323175 -0.34325682 14.16263205 -1.63183594 12.95068359 C-7.1506495 7.59824382 -7.1506495 7.59824382 -7.34375 2.9375 C-3.11495823 -0.08306555 -3.11495823 -0.08306555 0 0 Z " fill="#3A3A3A" transform="translate(27.34375,119.0625)"/>
<path d="M0 0 C3.93214301 1.58939426 6.33020346 4.16342502 9.25 7.1875 C13.64809191 11.69233812 18.1746678 15.94893314 23 20 C23.7425 19.608125 24.485 19.21625 25.25 18.8125 C28 18 28 18 30.3125 18.8125 C32.58893222 21.76343065 32.73623918 23.8948523 32.59765625 27.5703125 C31.50789068 32.00060127 28.45129142 35.13433495 25 38 C24.34 38 23.68 38 23 38 C22.773125 38.5775 22.54625 39.155 22.3125 39.75 C20.62732723 42.6388676 18.77312935 44.1512471 16 46 C14.68 46 13.36 46 12 46 C8.77734375 41.01953125 8.77734375 41.01953125 8 39 C8.31904297 37.77410156 8.31904297 37.77410156 8.64453125 36.5234375 C8.76183594 35.69070312 8.87914062 34.85796875 9 34 C7.30150742 31.7539283 7.30150742 31.7539283 4.75 29.8125 C3.83992187 29.04679687 2.92984375 28.28109375 1.9921875 27.4921875 C1.00476563 26.66976562 0.01734375 25.84734375 -1 25 C-3.06082334 23.16657786 -5.09337614 21.30316117 -7.125 19.4375 C-8.05570312 18.59058594 -8.98640625 17.74367187 -9.9453125 16.87109375 C-10.62335938 16.25363281 -11.30140625 15.63617188 -12 15 C-10.57641609 10.45925821 -8.27867927 7.96026853 -4.875 4.6875 C-3.96492188 3.80449219 -3.05484375 2.92148438 -2.1171875 2.01171875 C-1.41851562 1.34785156 -0.71984375 0.68398437 0 0 Z " fill="#343434" transform="translate(128,147)"/>
<path d="M0 0 C3.39859703 1.46966358 5.64963709 3.38037514 8.25 6 C8.95640625 6.70125 9.6628125 7.4025 10.390625 8.125 C12 10 12 10 12 12 C12.66 12 13.32 12 14 12 C13.44255611 15.64727571 12.19184621 17.05844308 9.375 19.375 C8.65441406 19.97828125 7.93382812 20.5815625 7.19140625 21.203125 C6.46824219 21.79609375 5.74507812 22.3890625 5 23 C-1.266433 28.21956275 -1.266433 28.21956275 -7 34 C-7 34.99 -7 35.98 -7 37 C-7.49210808 40.83844302 -8.48975573 43.05319151 -11 46 C-16.25353992 45.07975687 -19.26647091 41.58114015 -23 38 C-23.68449219 37.36449219 -24.36898438 36.72898438 -25.07421875 36.07421875 C-28.53615351 32.57015091 -30.44138337 30.16345182 -30.5625 25.125 C-30.39162501 21.96105659 -30.31248497 21.31248497 -28 19 C-26.98292969 19.28230469 -25.96585938 19.56460938 -24.91796875 19.85546875 C-20.4178794 20.02147404 -19.95930976 19.59277141 -16.73828125 16.73828125 C-15.24325675 15.28305332 -13.7684616 13.80681002 -12.3125 12.3125 C-11.56677734 11.57837891 -10.82105469 10.84425781 -10.05273438 10.08789062 C-8.0159512 8.07654453 -6.00545951 6.04249763 -4 4 C-2.66782798 2.66550636 -1.33481502 1.33185 0 0 Z " fill="#3A3A3A" transform="translate(34,147)"/>
<path d="M0 0 C4.2742558 1.5830577 6.26531794 4.50568404 9 8 C5.93224489 6.57568513 3.78959901 5.09219926 1 3 C-2.3 6.3 -5.6 9.6 -9 13 C-8.34 14.65 -7.68 16.3 -7 18 C-8.9375 17.1875 -8.9375 17.1875 -11 16 C-11.33 15.01 -11.66 14.02 -12 13 C-10.7421875 11.1328125 -10.7421875 11.1328125 -8.875 9.125 C-7.91013672 8.07699219 -7.91013672 8.07699219 -6.92578125 7.0078125 C-4.64944582 4.63451349 -2.36089008 2.28934796 0 0 Z " fill="#999999" transform="translate(128,147)"/>
<path d="M0 0 C0 3 0 3 -2.625 5.91796875 C-3.74249406 7.01550756 -4.86785643 8.10507895 -6 9.1875 C-6.57234375 9.74630859 -7.1446875 10.30511719 -7.734375 10.88085938 C-9.14962788 12.26073093 -10.57397155 13.63126734 -12 15 C-12.66 14.34 -13.32 13.68 -14 13 C-9.38 8.71 -4.76 4.42 0 0 Z " fill="#7C7C7C" transform="translate(101,77)"/>
</svg>
