<?xml version="1.0" encoding="UTF-8"?>
<svg version="1.1" xmlns="http://www.w3.org/2000/svg" width="108" height="108">
<path d="M0 0 C3.34644204 1.40666617 5.02502522 2.96783234 7.1640625 5.87890625 C7.72867188 6.63494141 8.29328125 7.39097656 8.875 8.16992188 C9.4525 8.95947266 10.03 9.74902344 10.625 10.5625 C11.78037567 12.12887384 12.93907006 13.69280688 14.1015625 15.25390625 C14.86460693 16.29526733 14.86460693 16.29526733 15.64306641 17.35766602 C16.9197962 19.12851199 16.9197962 19.12851199 19 20 C21.21930175 19.5753159 21.21930175 19.5753159 23.71875 18.78515625 C24.65074219 18.51123047 25.58273438 18.23730469 26.54296875 17.95507812 C27.51878906 17.66052734 28.49460937 17.36597656 29.5 17.0625 C31.42641776 16.48864636 33.3534721 15.916924 35.28125 15.34765625 C36.13783203 15.08992432 36.99441406 14.83219238 37.87695312 14.56665039 C40 14 40 14 42 14 C41.07917776 18.78827565 38.60415977 22.83815428 36.375 27.125 C35.25148492 29.4741679 34.48811662 31.46179357 34 34 C34.53367187 34.15855469 35.06734375 34.31710938 35.6171875 34.48046875 C41.74868303 36.40053915 47.32459514 39.00234357 53 42 C53 43.32 53 44.64 53 46 C47.39 48.97 41.78 51.94 36 55 C37.90211085 60.70633256 39.65507818 65.71627615 42.1875 71.0625 C42.71730469 72.18785156 43.24710937 73.31320313 43.79296875 74.47265625 C44.19128906 75.30667969 44.58960937 76.14070313 45 77 C39.12233861 77.16029986 33.76361016 76.60803581 28 75.5 C25.36 75.005 22.72 74.51 20 74 C20 81.26 20 88.52 20 96 C15.91586757 94.97896689 15.19559838 94.52889462 12.5 91.625 C11.89414062 90.99980469 11.28828125 90.37460938 10.6640625 89.73046875 C10.11492188 89.15941406 9.56578125 88.58835937 9 88 C7.06573804 85.91488673 7.06573804 85.91488673 5 85 C-0.72808229 86.57744091 -4.22081041 90.76547137 -8.37890625 94.78515625 C-11 97 -11 97 -15 98 C-15.495 85.625 -15.495 85.625 -16 73 C-24.09196745 71.72583349 -24.09196745 71.72583349 -32.18481445 70.45727539 C-33.1924585 70.29735107 -34.20010254 70.13742676 -35.23828125 69.97265625 C-36.7857605 69.72914429 -36.7857605 69.72914429 -38.36450195 69.48071289 C-41 69 -41 69 -44 68 C-43.80464793 64.15575036 -43.018644 63.018565 -40.234375 60.24609375 C-39.08315726 59.29733155 -37.92124483 58.36142508 -36.75 57.4375 C-36.17636719 56.96892578 -35.60273437 56.50035156 -35.01171875 56.01757812 C-33.35116262 54.66530292 -31.67800222 53.33053199 -30 52 C-28.55367187 50.84177734 -28.55367187 50.84177734 -27.078125 49.66015625 C-26.39234375 49.11230469 -25.7065625 48.56445312 -25 48 C-25.59293459 44.94794724 -26.48139363 43.06125287 -28.43359375 40.65234375 C-28.91763672 40.04712891 -29.40167969 39.44191406 -29.90039062 38.81835938 C-30.66125977 37.88733398 -30.66125977 37.88733398 -31.4375 36.9375 C-32.43706976 35.69731677 -33.43579901 34.45645553 -34.43359375 33.21484375 C-34.87759521 32.66948975 -35.32159668 32.12413574 -35.77905273 31.56225586 C-36.92536512 30.09549862 -37.96739182 28.54891227 -39 27 C-29.76 27 -20.52 27 -11 27 C-10.34 25.02 -9.68 23.04 -9 21 C-7.69334284 17.54358311 -6.31194435 14.11746398 -4.9375 10.6875 C-4.39125977 9.30981445 -4.39125977 9.30981445 -3.83398438 7.90429688 C-3.48529297 7.03224609 -3.13660156 6.16019531 -2.77734375 5.26171875 C-2.46015381 4.46725342 -2.14296387 3.67278809 -1.81616211 2.85424805 C-1 1 -1 1 0 0 Z M3 20 C1.52690889 22.10019014 0.18690365 24.17767729 -1.125 26.375 C-1.49753906 26.97828125 -1.87007812 27.5815625 -2.25390625 28.203125 C-4.3272824 31.37345777 -4.3272824 31.37345777 -5 35 C-11.435 35.495 -11.435 35.495 -18 36 C-16.40553733 41.60673368 -16.40553733 41.60673368 -14.3125 44.625 C-13 47 -13 47 -13.1328125 48.8515625 C-14.3415443 51.84616831 -16.24060151 53.5262099 -18.5625 55.75 C-19.38878906 56.54921875 -20.21507812 57.3484375 -21.06640625 58.171875 C-21.70449219 58.77515625 -22.34257812 59.3784375 -23 60 C-18.52456422 62.48867691 -14.00565267 63.07790609 -9 64 C-8.34 68.29 -7.68 72.58 -7 77 C-3.6133629 77 -3.22330713 76.64293967 -0.8125 74.5 C0.115625 73.675 1.04375 72.85 2 72 C5.55422264 73.97456813 8.13904448 76.13904448 11 79 C11.66 79 12.32 79 13 79 C13.99 74.71 14.98 70.42 16 66 C22.435 65.505 22.435 65.505 29 65 C28.175 63.411875 27.35 61.82375 26.5 60.1875 C24 55.375 24 55.375 24 52 C25.96875 50.46484375 25.96875 50.46484375 28.5 48.9375 C30.97383521 47.4796909 30.97383521 47.4796909 33 46 C33 45.34 33 44.68 33 44 C29.37 42.35 25.74 40.7 22 39 C22.99 35.7 23.98 32.4 25 29 C19.555 30.485 19.555 30.485 14 32 C13.37351563 31.13375 12.74703125 30.2675 12.1015625 29.375 C11.27638032 28.24975157 10.45084098 27.12476501 9.625 26 C9.2125 25.42765625 8.8 24.8553125 8.375 24.265625 C7.29828281 22.80684688 6.15333422 21.39899024 5 20 C4.34 20 3.68 20 3 20 Z " fill="#181818" transform="translate(48,5)"/>
<path d="M0 0 C3.22445149 3.06131993 5.3319232 6.47012179 7.625 10.25 C8.03234375 10.89324219 8.4396875 11.53648438 8.859375 12.19921875 C11.44030231 16.44663886 12.75987352 19.92655838 13 25 C11.45025353 29.24141138 9.83928642 31.6560146 6 34 C0.80301609 34.9294159 -3.60339658 34.86589412 -8.125 32.0625 C-10.60823667 28.00654677 -11.40603612 24.74504961 -11 20 C-10.05589835 17.06279488 -8.64196269 14.60148464 -7 12 C-6.566875 11.29488281 -6.13375 10.58976562 -5.6875 9.86328125 C-4.85370133 8.52076613 -4.00856462 7.18517604 -3.1484375 5.859375 C-1.97275043 3.95588165 -0.97146439 2.01422891 0 0 Z M-6 21 C-6 22.65 -6 24.3 -6 26 C-1.38 26 3.24 26 8 26 C8 24.35 8 22.7 8 21 C3.38 21 -1.24 21 -6 21 Z " fill="#141414" transform="translate(52,35)"/>
</svg>
