<?xml version="1.0" encoding="UTF-8"?>
<svg version="1.1" xmlns="http://www.w3.org/2000/svg" width="177" height="197">
<path d="M0 0 C1.32700524 2.18565569 2.05981299 3.45415741 1.77685547 6.03637695 C1 8 1 8 -2.4921875 9.66796875 C-3.94739106 10.19072469 -5.40873655 10.6966205 -6.875 11.1875 C-7.97521484 11.57711914 -7.97521484 11.57711914 -9.09765625 11.97460938 C-12.05396029 13.01658539 -15.02635606 14.00878535 -18 15 C-13.1083961 17.95534402 -8.39371278 20.1074692 -3 22 C-3.1534035 24.68456134 -3.43757685 26.4494618 -5.39794922 28.3684082 C-6.93196615 29.5789388 -8.46598307 30.7894694 -10 32 C-8.89140625 32.08636719 -7.7828125 32.17273438 -6.640625 32.26171875 C-5.17696834 32.40245497 -3.71343216 32.54444824 -2.25 32.6875 C-1.15558594 32.76774414 -1.15558594 32.76774414 -0.0390625 32.84960938 C3.62177882 33.23233369 5.65782257 33.68410091 8.390625 36.20703125 C10.04959568 39.08607018 11.10818856 41.80434235 12 45 C13.75129657 43.89789095 15.50098464 42.79322568 17.25 41.6875 C18.22453125 41.07261719 19.1990625 40.45773438 20.203125 39.82421875 C22.94735006 38.10555109 22.94735006 38.10555109 25.09765625 36.28515625 C27.34855415 34.76452912 28.50035629 34.6521077 31.1875 34.75 C32.35152344 34.78867188 32.35152344 34.78867188 33.5390625 34.828125 C37.3796802 35.09635862 41.18044419 35.51497704 45 36 C45.34998047 35.20335937 45.34998047 35.20335937 45.70703125 34.390625 C48.19445341 29.57399127 50.34951908 27.43224274 55.5 25.5625 C58.97079641 24.47543876 62.43404541 23.69906758 66 23 C65.01604248 22.6146106 65.01604248 22.6146106 64.01220703 22.22143555 C61.04584169 21.05324186 58.08545695 19.87058224 55.125 18.6875 C54.09246094 18.28337891 53.05992188 17.87925781 51.99609375 17.46289062 C51.00996094 17.06650391 50.02382812 16.67011719 49.0078125 16.26171875 C48.09660645 15.90037842 47.18540039 15.53903809 46.24658203 15.16674805 C44 14 44 14 42 11 C43.32 8.69 44.64 6.38 46 4 C53.59119375 5.57981087 60.99309071 7.65149664 68.4375 9.8125 C78.56639434 12.7449982 78.56639434 12.7449982 88.7265625 15.56640625 C89.55615479 15.79158936 90.38574707 16.01677246 91.24047852 16.2487793 C92.74495927 16.6545193 94.25059836 17.05599795 95.75756836 17.45239258 C98.95540038 18.31706258 101.21066893 19.14044596 104 21 C103.67 21.99 103.34 22.98 103 24 C100.36103419 25.12381018 97.82153476 26.05097886 95.09765625 26.91796875 C94.30475693 27.18007645 93.5118576 27.44218414 92.69493103 27.7122345 C91.0163007 28.26482248 89.33577609 28.81168375 87.65356445 29.35327148 C85.07301043 30.18411602 82.49811132 31.03080679 79.92382812 31.88085938 C78.29457553 32.41499279 76.6650276 32.94822641 75.03515625 33.48046875 C74.26115982 33.73354294 73.48716339 33.98661713 72.68971252 34.24736023 C67.23665994 36 67.23665994 36 65 36 C66.14454028 37.58426829 67.29074029 39.16733748 68.4375 40.75 C69.15808594 41.74644531 69.87867188 42.74289063 70.62109375 43.76953125 C72.22230833 45.96408591 73.86148178 48.12195772 75.53515625 50.26171875 C76.15209351 51.05787598 76.15209351 51.05787598 76.78149414 51.87011719 C77.95188341 53.37560689 79.13199283 54.87352469 80.3125 56.37109375 C82 59 82 59 82 63 C72.09571225 62.66464037 63.24181444 58.56520017 54.1328125 54.99658203 C51.95550283 54.14809973 49.7714209 53.31934348 47.5859375 52.4921875 C46.92846527 52.22767792 46.27099304 51.96316833 45.59359741 51.69064331 C41.0142321 49.97024825 37.74285653 49.87716601 33 51 C29.92183765 52.64396774 29.92183765 52.64396774 27 54.875 C26.18511108 55.45870361 26.18511108 55.45870361 25.35375977 56.05419922 C22.18141396 58.33972507 19.07152839 60.70447831 15.96484375 63.078125 C15.29388672 63.5848877 14.62292969 64.09165039 13.93164062 64.61376953 C12.62015099 65.60766288 11.31768766 66.61360079 10.02539062 67.63232422 C8.21484375 69.0078125 8.21484375 69.0078125 5 71 C3.68 70.67 2.36 70.34 1 70 C-0.65 62.08 -2.3 54.16 -4 46 C-17.86 46 -31.72 46 -46 46 C-46 43 -46 43 -43.40234375 40.2578125 C-42.25505546 39.20513219 -41.09970765 38.16118514 -39.9375 37.125 C-39.09541992 36.34962891 -39.09541992 36.34962891 -38.23632812 35.55859375 C-34.35885016 32.04005946 -30.30800166 28.97444191 -26 26 C-28.15208211 23.84791789 -29.71990618 23.13860182 -32.5078125 21.9765625 C-33.41273437 21.595 -34.31765625 21.2134375 -35.25 20.8203125 C-36.19875 20.42585938 -37.1475 20.03140625 -38.125 19.625 C-44.53503444 16.94671263 -50.82286571 14.18304097 -57 11 C-57 10.01 -57 9.02 -57 8 C-47.80558842 4.98283784 -38.45349053 3.81101731 -28.89208984 2.63745117 C-26.24058475 2.31134202 -23.59101176 1.97202604 -20.94140625 1.63085938 C-19.23707668 1.41589213 -17.53265254 1.20167307 -15.828125 0.98828125 C-15.0456842 0.88832352 -14.26324341 0.78836578 -13.45709229 0.68537903 C-8.93298474 0.13612274 -4.55740119 -0.0954805 0 0 Z " fill="#242424" transform="translate(66,122)"/>
<path d="M0 0 C7.3175052 7.3175052 9.66907128 17.20629201 9.9375 27.25 C9.6064092 46.61881204 1.15325259 68.52162695 -12.4765625 82.65625 C-15.40041197 84.14825549 -18.15721834 83.77786374 -21.375 83.625 C-31.3445476 62.10170272 -35.96161395 41.12603859 -29.375 17.625 C-26.79021705 10.76890904 -22.89557744 3.47305936 -16.52734375 -0.5390625 C-11.19943636 -2.60834051 -5.20062019 -2.11877119 0 0 Z " fill="#111111" transform="translate(112.375,9.375)"/>
<path d="M0 0 C3.53353638 3.55503863 5.3186525 6.5020933 5.55078125 11.5625 C5.09775744 17.45180954 3.15318629 21.34887708 -1.19921875 25.4375 C-5.87301908 27.12802352 -10.24240814 27.3682325 -15.13671875 26.5 C-18.9886012 24.44748715 -21.37512339 21.79140082 -23.57421875 18.0625 C-24.6538427 13.14421313 -24.85293291 9.80453294 -22.38671875 5.3125 C-17.27493013 -1.07723577 -17.27493013 -1.07723577 -13.94921875 -2.3125 C-4.2182155 -2.96123355 -4.2182155 -2.96123355 0 0 Z " fill="#1C1C1C" transform="translate(99.13671875,106.5)"/>
<path d="M0 0 C2.5 2.25 2.5 2.25 5 5 C5 6.32 5 7.64 5 9 C3.56163249 8.88541307 2.12429034 8.75790884 0.6875 8.625 C-0.51326172 8.52058594 -0.51326172 8.52058594 -1.73828125 8.4140625 C-4 8 -4 8 -7 6 C-3.7 6.33 -0.4 6.66 3 7 C2.505 6.21625 2.01 5.4325 1.5 4.625 C0 2 0 2 0 0 Z " fill="#B7B7B7" transform="translate(143,176)"/>
</svg>
