<svg xmlns="http://www.w3.org/2000/svg" viewBox="0 0 111.92 108.00" width="111.92" height="108.00">
  <defs>
    <filter id="shadow" x="-20%" y="-20%" width="140%" height="140%">
      <feDropShadow dx="1" dy="1" stdDeviation="1" flood-opacity="0.5"/>
    </filter>
  </defs>
  <g filter="url(#shadow)">
    <path d="M21.32,5.00L37.77,14.50L37.77,33.50L21.32,43.00L4.87,33.50L4.87,14.50Z" fill="#c41e3a" stroke="#ffffff" stroke-width="2"/>
    <line x1="13.320508075688771" y1="16" x2="29.32050807568877" y2="32" stroke="#ffffff" stroke-width="2.5" stroke-linecap="round"/>
    <line x1="29.32050807568877" y1="16" x2="13.320508075688771" y2="32" stroke="#ffffff" stroke-width="2.5" stroke-linecap="round"/>
    <path d="M55.96,5.00L72.42,14.50L72.42,33.50L55.96,43.00L39.51,33.50L39.51,14.50Z" fill="#c41e3a" stroke="#ffffff" stroke-width="2"/>
    <line x1="47.96152422706631" y1="16" x2="63.96152422706631" y2="32" stroke="#ffffff" stroke-width="2.5" stroke-linecap="round"/>
    <line x1="63.96152422706631" y1="16" x2="47.96152422706631" y2="32" stroke="#ffffff" stroke-width="2.5" stroke-linecap="round"/>
    <path d="M90.60,5.00L107.06,14.50L107.06,33.50L90.60,43.00L74.15,33.50L74.15,14.50Z" fill="#c41e3a" stroke="#ffffff" stroke-width="2"/>
    <line x1="82.60254037844385" y1="16" x2="98.60254037844385" y2="32" stroke="#ffffff" stroke-width="2.5" stroke-linecap="round"/>
    <line x1="98.60254037844385" y1="16" x2="82.60254037844385" y2="32" stroke="#ffffff" stroke-width="2.5" stroke-linecap="round"/>
    <path d="M38.64,35.00L55.10,44.50L55.10,63.50L38.64,73.00L22.19,63.50L22.19,44.50Z" fill="#c41e3a" stroke="#ffffff" stroke-width="2"/>
    <line x1="30.641016151377542" y1="46" x2="46.64101615137754" y2="62" stroke="#ffffff" stroke-width="2.5" stroke-linecap="round"/>
    <line x1="46.64101615137754" y1="46" x2="30.641016151377542" y2="62" stroke="#ffffff" stroke-width="2.5" stroke-linecap="round"/>
    <path d="M73.28,35.00L89.74,44.50L89.74,63.50L73.28,73.00L56.83,63.50L56.83,44.50Z" fill="#c41e3a" stroke="#ffffff" stroke-width="2"/>
    <line x1="65.28203230275508" y1="46" x2="81.28203230275508" y2="62" stroke="#ffffff" stroke-width="2.5" stroke-linecap="round"/>
    <line x1="81.28203230275508" y1="46" x2="65.28203230275508" y2="62" stroke="#ffffff" stroke-width="2.5" stroke-linecap="round"/>
    <path d="M55.96,65.00L72.42,74.50L72.42,93.50L55.96,103.00L39.51,93.50L39.51,74.50Z" fill="#505254" stroke="#303030" stroke-width="1.5"/>
  </g>
</svg>