<svg xmlns="http://www.w3.org/2000/svg" viewBox="0 0 146.56 48.00" width="146.56" height="48.00">
  <defs>
    <filter id="shadow" x="-20%" y="-20%" width="140%" height="140%">
      <feDropShadow dx="1" dy="1" stdDeviation="1" flood-opacity="0.5"/>
    </filter>
  </defs>
  <g filter="url(#shadow)">
    <path d="M21.32,5.00L37.77,14.50L37.77,33.50L21.32,43.00L4.87,33.50L4.87,14.50Z" fill="#505254" stroke="#303030" stroke-width="1.5"/>
    <path d="M55.96,5.00L72.42,14.50L72.42,33.50L55.96,43.00L39.51,33.50L39.51,14.50Z" fill="#c41e3a" stroke="#ffffff" stroke-width="2"/>
    <line x1="47.96152422706631" y1="16" x2="63.96152422706631" y2="32" stroke="#ffffff" stroke-width="2.5" stroke-linecap="round"/>
    <line x1="63.96152422706631" y1="16" x2="47.96152422706631" y2="32" stroke="#ffffff" stroke-width="2.5" stroke-linecap="round"/>
    <path d="M90.60,5.00L107.06,14.50L107.06,33.50L90.60,43.00L74.15,33.50L74.15,14.50Z" fill="#c41e3a" stroke="#ffffff" stroke-width="2"/>
    <line x1="82.60254037844385" y1="16" x2="98.60254037844385" y2="32" stroke="#ffffff" stroke-width="2.5" stroke-linecap="round"/>
    <line x1="98.60254037844385" y1="16" x2="82.60254037844385" y2="32" stroke="#ffffff" stroke-width="2.5" stroke-linecap="round"/>
    <path d="M125.24,5.00L141.70,14.50L141.70,33.50L125.24,43.00L108.79,33.50L108.79,14.50Z" fill="#c41e3a" stroke="#ffffff" stroke-width="2"/>
    <line x1="117.2435565298214" y1="16" x2="133.2435565298214" y2="32" stroke="#ffffff" stroke-width="2.5" stroke-linecap="round"/>
    <line x1="133.2435565298214" y1="16" x2="117.2435565298214" y2="32" stroke="#ffffff" stroke-width="2.5" stroke-linecap="round"/>
  </g>
</svg>